<svg id="bb9953cd-207f-4bba-a149-1b1ab563f18b" data-name="Layer 1" xmlns="http://www.w3.org/2000/svg" width="865.76" height="682.89" viewBox="0 0 865.76 682.89"><g id="ed362500-e866-4a65-a221-1c66c9b36f66" data-name="freepik--background-complete--inject-655"><rect x="710.09" y="624.44" width="55.05" height="0.42" fill="#ebebeb"/><rect x="553.44" y="628.96" width="14.44" height="0.42" fill="#ebebeb"/><rect x="676.53" y="609.02" width="31.9" height="0.42" fill="#ebebeb"/><rect x="104.54" y="611.81" width="71.79" height="0.42" fill="#ebebeb"/><rect x="191.14" y="611.81" width="10.52" height="0.42" fill="#ebebeb"/><rect x="235.87" y="618.82" width="155.71" height="0.42" fill="#ebebeb"/><path d="M411.27,523.57H90.33a9.49,9.49,0,0,1-9.47-9.49V62.92a9.49,9.49,0,0,1,9.47-9.41H411.27A9.49,9.49,0,0,1,420.76,63h0V514.08A9.49,9.49,0,0,1,411.27,523.57ZM90.33,53.85a9.08,9.08,0,0,0-9.06,9.07V514.08a9.08,9.08,0,0,0,9.06,9.07H411.27a9.1,9.1,0,0,0,9.08-9.07V62.92a9.09,9.09,0,0,0-9.08-9.07Z" fill="#ebebeb"/><path d="M770.81,523.57h-321a9.51,9.51,0,0,1-9.49-9.49V62.92a9.52,9.52,0,0,1,9.49-9.41h321a9.5,9.5,0,0,1,9.46,9.41V514.08A9.5,9.5,0,0,1,770.81,523.57Zm-321-469.72a9.08,9.08,0,0,0-9.07,9.07V514.08a9.09,9.09,0,0,0,9.07,9.07h321a9.1,9.1,0,0,0,9.08-9.07V62.92a9.09,9.09,0,0,0-9.08-9.07Z" fill="#ebebeb"/><rect x="17.35" y="597.7" width="831.07" height="0.42" fill="#ebebeb"/><rect x="656.29" y="80.72" width="118.43" height="401.76" fill="#fafafa"/><rect x="629.66" y="222.94" width="148.06" height="256.04" fill="#e0e0e0"/><polygon points="658.1 187.17 658.1 251.38 669.79 251.38 737.62 251.38 749.3 251.38 749.3 187.17 658.1 187.17" fill="#e0e0e0"/><rect x="639.15" y="232.43" width="18.95" height="18.95" fill="#fafafa"/><rect x="675.87" y="232.43" width="18.95" height="18.95" fill="#fafafa"/><rect x="712.59" y="232.43" width="18.95" height="18.95" fill="#fafafa"/><rect x="749.3" y="232.43" width="18.97" height="18.95" fill="#f0f0f0"/><rect x="639.15" y="266.87" width="18.95" height="18.97" fill="#f0f0f0"/><rect x="675.87" y="266.87" width="18.95" height="18.97" fill="#f0f0f0"/><rect x="712.59" y="266.87" width="18.95" height="18.97" fill="#fafafa"/><rect x="749.3" y="266.87" width="18.97" height="18.97" fill="#fafafa"/><rect x="639.15" y="301.31" width="18.95" height="18.95" fill="#f0f0f0"/><rect x="675.87" y="301.31" width="18.95" height="18.95" fill="#fafafa"/><rect x="712.59" y="301.31" width="18.95" height="18.95" fill="#fafafa"/><rect x="675.87" y="202.64" width="18.95" height="18.95" fill="#fafafa"/><rect x="712.59" y="202.64" width="18.95" height="18.95" fill="#f0f0f0"/><rect x="749.3" y="301.31" width="18.97" height="18.95" fill="#f0f0f0"/><rect x="639.15" y="335.75" width="18.95" height="18.95" fill="#fafafa"/><rect x="675.87" y="335.75" width="18.95" height="18.95" fill="#f0f0f0"/><rect x="712.59" y="335.75" width="18.95" height="18.95" fill="#f0f0f0"/><rect x="749.3" y="335.75" width="18.97" height="18.95" fill="#fafafa"/><rect x="639.15" y="370.2" width="18.95" height="18.97" fill="#f0f0f0"/><rect x="675.87" y="370.2" width="18.95" height="18.97" fill="#fafafa"/><rect x="712.59" y="370.2" width="18.95" height="18.97" fill="#fafafa"/><rect x="749.3" y="370.2" width="18.97" height="18.97" fill="#f0f0f0"/><rect x="639.15" y="404.64" width="18.95" height="18.95" fill="#f0f0f0"/><rect x="675.87" y="404.64" width="18.95" height="18.95" fill="#fafafa"/><rect x="712.59" y="404.64" width="18.95" height="18.95" fill="#f0f0f0"/><rect x="749.3" y="404.64" width="18.97" height="18.95" fill="#fafafa"/><rect x="639.15" y="439.08" width="18.95" height="18.97" fill="#fafafa"/><rect x="675.87" y="439.08" width="18.95" height="18.97" fill="#fafafa"/><rect x="712.59" y="439.08" width="18.95" height="18.97" fill="#f0f0f0"/><rect x="749.3" y="439.08" width="18.97" height="18.97" fill="#f0f0f0"/><rect x="656.06" y="80.72" width="118.43" height="401.76" fill="#fff" opacity="0.1" style="isolation:isolate"/><g opacity="0.3"><polygon points="762.9 80.72 725.14 80.72 683.83 482.48 721.58 482.48 762.9 80.72" fill="#fff"/></g><rect x="655.29" y="75.64" width="120.42" height="10.19" fill="#e0e0e0"/><rect x="655.29" y="478.97" width="120.42" height="10.19" fill="#ebebeb"/><path d="M780.39,497.85H649.84V65.7H780.39Zm-120.59-10H770.45V75.67H659.8Z" fill="#ebebeb"/><rect x="527.11" y="80.72" width="118.43" height="401.76" fill="#fafafa"/><rect x="535.3" y="356.09" width="101.27" height="124.28" fill="#e6e6e6"/><polygon points="627.77 369.87 604.2 369.87 597.72 369.87 591.23 369.87 591.23 382.83 597.72 382.83 604.2 382.83 627.77 382.83 627.77 369.87" fill="#e6e6e6"/><polygon points="627.77 394.98 604.2 394.98 597.72 394.98 591.23 394.98 591.23 407.95 597.72 407.95 604.2 407.95 627.77 407.95 627.77 394.98" fill="#fafafa"/><polygon points="627.77 420.1 604.2 420.1 597.72 420.1 591.23 420.1 591.23 433.06 597.72 433.06 604.2 433.06 627.77 433.06 627.77 420.1" fill="#e6e6e6"/><polygon points="627.77 445.21 604.2 445.21 594.19 445.21 591.23 445.21 591.23 458.18 594.19 458.18 604.2 458.18 627.77 458.18 627.77 445.21" fill="#fafafa"/><polygon points="580.65 369.87 557.09 369.87 550.61 369.87 544.13 369.87 544.13 382.83 550.61 382.83 557.09 382.83 580.65 382.83 580.65 369.87" fill="#fafafa"/><polygon points="580.65 394.98 557.09 394.98 547.95 394.98 544.13 394.98 544.13 407.95 547.95 407.95 557.09 407.95 580.65 407.95 580.65 394.98" fill="#fafafa"/><polygon points="580.65 420.1 557.09 420.1 550.61 420.1 544.13 420.1 544.13 433.06 550.61 433.06 557.09 433.06 580.65 433.06 580.65 420.1" fill="#e6e6e6"/><polygon points="580.65 445.21 557.09 445.21 550.61 445.21 544.13 445.21 544.13 458.18 550.61 458.18 557.09 458.18 580.65 458.18 580.65 445.21" fill="#fafafa"/><rect x="526.73" y="80.72" width="118.43" height="401.76" fill="#fff" opacity="0.1" style="isolation:isolate"/><g opacity="0.3"><polygon points="633.72 80.72 595.97 80.72 554.65 482.48 592.41 482.48 633.72 80.72" fill="#fff"/></g><rect x="526.11" y="75.64" width="120.42" height="10.19" fill="#e0e0e0"/><rect x="526.11" y="478.97" width="120.42" height="10.19" fill="#ebebeb"/><path d="M651.22,497.85H520.68V65.7H651.22Zm-120.6-10H641.26V75.67H530.62Z" fill="#ebebeb"/><rect x="216.8" y="80.72" width="118.43" height="401.76" fill="#fafafa"/><rect x="216.57" y="80.72" width="118.43" height="401.76" fill="#fff" opacity="0.1" style="isolation:isolate"/><g opacity="0.3"><polygon points="323.43 80.72 285.67 80.72 244.36 482.48 282.11 482.48 323.43 80.72" fill="#fff"/></g><rect x="215.82" y="75.64" width="120.42" height="10.19" fill="#e0e0e0"/><rect x="215.82" y="478.97" width="120.42" height="10.19" fill="#ebebeb"/><path d="M340.92,497.85H210.37V65.7H340.92Zm-120.59-10H331V75.67H220.33Z" fill="#ebebeb"/><rect x="87.81" y="80.72" width="118.43" height="401.76" fill="#fafafa"/><rect x="96.71" y="250.86" width="91.67" height="76.92" fill="#e6e6e6"/><rect x="102.58" y="260.45" width="11.73" height="11.73" fill="#fafafa"/><rect x="125.32" y="260.45" width="11.73" height="11.73" fill="#fafafa"/><rect x="148.06" y="260.45" width="11.73" height="11.73" fill="#fafafa"/><rect x="170.78" y="260.45" width="11.73" height="11.73" fill="#fafafa"/><rect x="102.58" y="281.78" width="11.73" height="11.73" fill="#fafafa"/><rect x="125.32" y="281.78" width="11.73" height="11.73" fill="#fafafa"/><rect x="148.06" y="281.78" width="11.73" height="11.73" fill="#fafafa"/><rect x="170.78" y="281.78" width="11.73" height="11.73" fill="#e6e6e6"/><rect x="102.58" y="303.08" width="11.73" height="11.73" fill="#e6e6e6"/><rect x="125.32" y="303.08" width="11.73" height="11.73" fill="#e6e6e6"/><rect x="148.06" y="303.08" width="11.73" height="11.73" fill="#fafafa"/><rect x="170.78" y="303.08" width="11.73" height="11.73" fill="#e6e6e6"/><rect x="96.71" y="326.82" width="91.67" height="76.92" fill="#e6e6e6"/><rect x="102.58" y="336.39" width="11.73" height="11.73" fill="#fafafa"/><rect x="125.32" y="336.39" width="11.73" height="11.73" fill="#fafafa"/><rect x="148.06" y="336.39" width="11.73" height="11.73" fill="#fafafa"/><rect x="170.78" y="336.39" width="11.73" height="11.73" fill="#fafafa"/><rect x="102.58" y="357.72" width="11.73" height="11.73" fill="#fafafa"/><rect x="125.32" y="357.72" width="11.73" height="11.73" fill="#fafafa"/><rect x="148.06" y="357.72" width="11.73" height="11.73" fill="#fafafa"/><rect x="170.78" y="357.72" width="11.73" height="11.73" fill="#e6e6e6"/><rect x="102.58" y="379.04" width="11.73" height="11.73" fill="#e6e6e6"/><rect x="125.32" y="379.04" width="11.73" height="11.73" fill="#e6e6e6"/><rect x="148.06" y="379.04" width="11.73" height="11.73" fill="#fafafa"/><rect x="170.78" y="379.04" width="11.73" height="11.73" fill="#e6e6e6"/><rect x="96.71" y="402.76" width="91.67" height="76.92" fill="#e6e6e6"/><rect x="102.58" y="412.35" width="11.73" height="11.73" fill="#fafafa"/><rect x="125.32" y="412.35" width="11.73" height="11.73" fill="#fafafa"/><rect x="148.06" y="412.35" width="11.73" height="11.73" fill="#fafafa"/><rect x="170.78" y="412.35" width="11.73" height="11.73" fill="#fafafa"/><rect x="102.58" y="433.68" width="11.73" height="11.73" fill="#fafafa"/><rect x="125.32" y="433.68" width="11.73" height="11.73" fill="#fafafa"/><rect x="148.06" y="433.68" width="11.73" height="11.73" fill="#fafafa"/><rect x="170.78" y="433.68" width="11.73" height="11.73" fill="#e6e6e6"/><rect x="102.58" y="455" width="11.73" height="11.73" fill="#e6e6e6"/><rect x="125.32" y="455" width="11.73" height="11.73" fill="#e6e6e6"/><rect x="148.06" y="455" width="11.73" height="11.73" fill="#fafafa"/><rect x="170.78" y="455" width="11.73" height="11.73" fill="#e6e6e6"/><rect x="86.24" y="80.72" width="118.43" height="401.76" fill="#fff" opacity="0.1" style="isolation:isolate"/><g opacity="0.3"><polygon points="194.41 80.72 156.67 80.72 115.36 482.48 153.11 482.48 194.41 80.72" fill="#fff"/></g><rect x="86.82" y="75.64" width="120.42" height="10.19" fill="#e0e0e0"/><rect x="86.82" y="478.97" width="120.42" height="10.19" fill="#ebebeb"/><path d="M211.92,497.85H81.37V65.7H211.92Zm-120.59-10H202V75.67H91.33Z" fill="#ebebeb"/><path d="M422.11,551.51l-1.33.16c-.08-.68-8.16-68.29,8.51-123.54,16.62-54.85,5.15-89.92,5-90.26l1.28-.43c.11.35,11.63,35.75-5,91.07C414,483.49,422,550.84,422.11,551.51Z" fill="#e0e0e0"/><path d="M436.7,345.4a21,21,0,0,0-11.23-6.93l.31-1.31a22.35,22.35,0,0,1,12,7.38Z" fill="#e0e0e0"/><rect x="438.62" y="351.99" width="4.4" height="1.35" transform="translate(-116.46 262.5) rotate(-29.47)" fill="#e0e0e0"/><path d="M435.26,382.17A32,32,0,0,0,418,365.41l.49-1.23a33.28,33.28,0,0,1,18,17.44Z" fill="#e0e0e0"/><path d="M431.67,424.4h-1.35a18.43,18.43,0,0,0-6.95-14.11l.84-1.05A19.84,19.84,0,0,1,431.67,424.4Z" fill="#e0e0e0"/><path d="M428.68,435.21l-1.27-.48a13.52,13.52,0,0,1,7.65-7.55l.46,1.26A12.05,12.05,0,0,0,428.68,435.21Z" fill="#e0e0e0"/><path d="M420,503.74l-1-.85c1.66-2,2.87-9.47,3.54-13.5.15-1,.28-1.78.4-2.37l1.31.25c-.1.58-.23,1.39-.4,2.34C422.81,495.64,421.7,501.66,420,503.74Z" fill="#e0e0e0"/><path d="M419.2,525.26a13.3,13.3,0,0,0-12.81-8.84v-1.35a14.65,14.65,0,0,1,14.16,9.78Z" fill="#e0e0e0"/><rect x="418.14" y="544.39" width="14.19" height="1.35" transform="translate(-264.54 498.88) rotate(-48.21)" fill="#e0e0e0"/><path d="M436.21,470.3c2.14,6.93-12.8,20.14-12.8,20.14S403.61,488,401.47,481s2.87-18.29,12.46-21.25S434,463.36,436.21,470.3Z" fill="#f0f0f0"/><path d="M452.73,386.12c-1.9,7.37-16.06,12.6-16.06,12.6s-9.87-11.42-8-18.78,9.73-15.49,16.36-13.78S454.62,378.76,452.73,386.12Z" fill="#ebebeb"/><path d="M395.93,496.19c8.88,3.48,14.33,19.18,14.33,19.18s-14.64,7.9-23.54,4.44-18.28-13.3-15.75-19.73S387,492.73,395.93,496.19Z" fill="#f5f5f5"/><path d="M415.41,409.71a19,19,0,0,0,6.07,3.44,6.45,6.45,0,0,0,6.48-1.53c1.91-2.19,1.4-5.58.2-8.23-2.38-5.23-11.13-14.11-17.87-11.63C400.59,395.5,411.07,406.5,415.41,409.71Z" fill="#e6e6e6"/><path d="M435.29,423.06c-1.28,1.58-2.62,3.55-1.93,5.47a4.07,4.07,0,0,0,4.48,2.19,12.09,12.09,0,0,0,4.8-2.34c3.42-2.4,10.45-7.38,6-12.05S438,419.72,435.29,423.06Z" fill="#ebebeb"/><path d="M406.6,356.57a3.51,3.51,0,0,0-3.2,2.59c-.29,1.67,1.13,3.2,2.49,4.24,3.41,2.63,13.63,9.71,15.92,2.88C424,359.83,411.12,356,406.6,356.57Z" fill="#e0e0e0"/><path d="M425.47,334.1c-2.11.2-4.22-.57-6.33-.43s-4.48,1.83-4,3.9,2.81,2.55,4.75,2.68a38.79,38.79,0,0,0,10-.7,3,3,0,0,0,2-1c.87-1.27-.49-3-2-3.33a21.84,21.84,0,0,1-4.42-1Z" fill="#e6e6e6"/><path d="M446.18,348.63c2.13,0,4.17-.85,6.3-.85s4.57,1.53,4.24,3.62-2.65,2.74-4.59,3a37.82,37.82,0,0,1-10,0,3.05,3.05,0,0,1-2.1-.88c-.93-1.21.32-3,1.66-3.52a20.78,20.78,0,0,0,4.36-1.35Z" fill="#f0f0f0"/><path d="M444,504.8a3,3,0,0,1,1.81-.9,2.07,2.07,0,0,1,1.8,1.77,5.92,5.92,0,0,1-.33,2.67c-1.45,4.81-17.57,39.63-21.3,33.38-2.19-3.71,3.21-15.94,4.81-19.42A50.59,50.59,0,0,1,444,504.8Z" fill="#f0f0f0"/><path d="M434.36,335.41a18.21,18.21,0,0,1,5.17-7.64c2.54-1.85,6.65-2,8.48.56,2.08,2.84,0,7.17-3.18,8.68s-6.88,1.05-10.37.56a9.94,9.94,0,0,0-.08-1.54Z" fill="#e6e6e6"/><path d="M445.63,598h0a155.51,155.51,0,0,1-52.19,0h0l-20.3-59.84h92.8Z" fill="#f0f0f0"/><circle cx="433.86" cy="115.43" r="34.46" transform="translate(250.43 525.2) rotate(-80.78)" fill="#e0e0e0"/><circle cx="431.56" cy="114" r="34.46" transform="translate(45.79 338.55) rotate(-45)" fill="#ebebeb"/><path d="M459.19,114.22a27.66,27.66,0,1,1-27.65-27.66h0A27.65,27.65,0,0,1,459.19,114.22Z" fill="#fff" opacity="0.8" style="isolation:isolate"/><path d="M430,116.82a2.81,2.81,0,1,1,4,0,2.8,2.8,0,0,1-4,0Z" fill="#e0e0e0"/><polygon points="431.54 113.88 447.86 113.38 447.91 115.08 433.12 115.53 431.52 141.26 429.84 141.16 431.54 113.88" fill="#e0e0e0"/></g><path d="M380.85,528.34,388.07,613a7.43,7.43,0,0,0,7.41,6.8h0a7.43,7.43,0,0,0,7.43-7.43V525.54Z" fill="#a7a9ac"/><path d="M92.4,527.83l-9.34,86.74A6.7,6.7,0,0,0,89.72,622h0a6.71,6.71,0,0,0,6.55-5.26l20.1-91.61Z" fill="#a7a9ac"/><path d="M159.37,523.87l1.6,91a7.21,7.21,0,0,0,7.21,7.08h0a7.21,7.21,0,0,0,7.19-6.74l5.74-90.13Z" fill="#a7a9ac"/><path d="M462.52,526.84l11,87.48a7,7,0,0,1-6.91,7.83h0a7,7,0,0,1-6.8-5.44l-20.21-89.87Z" fill="#a7a9ac"/><path d="M409.13,427.23H518.3L482.63,464.8a21.76,21.76,0,0,0-14.74-6.36l-39.08-.29-21.48-3.74S405.16,439.13,409.13,427.23Z" fill="#bcbec0"/><path d="M57.8,316.51l313-.19s19.46-4,25.63,11.63c.21.54.41,1.11.59,1.7,5.38,17.63,19.45,97.58,19.45,97.58l2.88,47.12L93.78,450.92,43,407.43l-5.74-79.72S34.93,316.52,57.8,316.51Z" fill="#d1d3d4"/><path d="M142.71,426.3H66.87s-17.79-45-21.06-86.72c0,0-5.8-22.53,12-23.07,0,0-34.13-3.8-33,22.34,0,0,3.95,56.91,13.72,87a29.06,29.06,0,0,1,1.45,9.48l-.65,44s.73,53.42,54.46,53.42H172L168.9,450Z" fill="#bcbec0"/><path d="M417,625.6H386.61c-7.58-3.22-16.36-14.23-16.36-14.23l-2.9,14.23h-3.79c-.29-8.18-4.09-17.25-4.09-17.25-5.83-19.28,3.79-26.09,3.79-26.09s-.57,9.67,14.61,22.26c0,0,14,11.93,22.45,3.48l17.82,11.76c2.79,2.13,2.44,3.71,1.6,4.69A3.6,3.6,0,0,1,417,625.6Z" fill="#008a86"/><path d="M417,625.6H386.61c-7.58-3.22-16.36-14.23-16.36-14.23l-2.9,14.23h-3.79c-.29-8.18-4.09-17.25-4.09-17.25-5.83-19.28,3.79-26.09,3.79-26.09s-.57,9.67,14.61,22.26c0,0,14,11.93,22.45,3.48l17.82,11.76c2.79,2.13,2.44,3.71,1.6,4.69A3.6,3.6,0,0,1,417,625.6Z" opacity="0.2" style="isolation:isolate"/><path d="M142.71,426.3v77.11A29.32,29.32,0,0,0,172,532.73H481.8a36.5,36.5,0,0,0,36.5-36.5v-69S478,423,482.63,464.8v29.69h-280s-22.58,3.91-20.46-23C182.12,471.48,191.64,420.87,142.71,426.3Z" fill="#d1d3d4"/><path d="M370.84,608.35c-8.46,8.45-22.76-3.52-22.76-3.52-15.18-12.58-14-22.57-14-22.57l-20.63-35.33c10.84-6.07,23.07-20.09,23.07-20.09l9.52,31c10.13,37.87,20.06,47.49,23.52,49.78a5.39,5.39,0,0,0,1.27.68Z" fill="#f9b499"/><path d="M363.26,582.26,344.14,551.7l-7.63-24.86S348.58,512,351.89,497l28.29,81.62s2.34,7.59,5.55,10.21a43.74,43.74,0,0,1,6.13,10.38s3.5,6.39,8.46,8.8c0,0-6.13,7.12-18.68-.34C381.64,607.66,362.67,595,363.26,582.26Z" fill="#f9b499"/><path d="M351.89,497s.8,18.76-5.08,27.37c0,0,5.86,21-.48,30.84l-2.19-3.5-7.63-24.86Z" fill="#f7a48b"/><path d="M259.08,323l33.32,42.61a2.18,2.18,0,0,1,.4,1.84c-.66,2.67-3.33,10-14,18.11a2.15,2.15,0,0,1-2.7-.06L262.4,374l-3.32-28.36.61-5.74L257.12,326Z" fill="#008a86"/><path d="M259.08,323l33.32,42.61a2.18,2.18,0,0,1,.4,1.84c-.66,2.67-3.33,10-14,18.11a2.15,2.15,0,0,1-2.7-.06L262.4,374l-3.32-28.36.61-5.74L257.12,326Z" opacity="0.2" style="isolation:isolate"/><path d="M483.44,580a9.66,9.66,0,0,1,.56,1.73,1.53,1.53,0,0,1-2.53,1.45l-9.22-8.37a5.3,5.3,0,0,1,1.75-3.29,3.48,3.48,0,0,0,1.23-3.17l-1.4-9.92,17.48-3,.79,15.83C480.13,570.28,481.55,575.62,483.44,580Z" fill="#f9b499"/><path d="M292.8,367.48l1.75,2.13a5.83,5.83,0,0,0,5.95,1.94l39.3-10s9.09-5.68,9.59-5.53,10.77-9.91,22.21.92a29.84,29.84,0,0,1-3.26,4.13l-15,8.83s-2.27-1.29-12,2.58l-42.71,20.35s-8.26,2.78-13.64-2.52l-6.15-4.71S290.36,377,292.8,367.48Z" fill="#f9b499"/><path d="M633.42,443.17l10.06-55.4s1.33-22.69,20.16-22.14h90.44l30.92.9,13.24,20.71-25.51,104.5L633.42,464.69Z" fill="#d1d3d4"/><path d="M762.68,420.7s-5.63,38.63-19.84,36.74a8.33,8.33,0,0,1-4.28-2.06c-3.77-3.27-14.74-13.59-21-28.28,0,0-20.46,18.57-15.3,37.14,0,0-8.54,1.19-19.43,1.74-15.93.82-36.92.29-43.62-7.32,0,0-5.21-4.55,0-10.41,0,0,13-8.47,11.06-19.31l-20.72,15.19-26,4.12-9.87-13.88,24.3-6.95s5.55-2.23,7.93-6.25c.78-1.3,1.59-2.58,2.46-3.82a353.05,353.05,0,0,1,24.75-31.44s4.07-6,13.9-8.8l40.79-.45,5.89-2.63s15.28,3.83,22.46,22.05l7.49,24.62,8.11-26.07S765.48,402.59,762.68,420.7Z" fill="#008a86"/><path d="M677.43,362.92v6.88a4.25,4.25,0,0,1-.58,2.17,9.84,9.84,0,0,0-.91,7,9.93,9.93,0,0,1,.18,1.2c.16,2,1.42,8.58,11,4.25,0,0,8.24-4.34,15.76-14.9,0,0-6.68-2.46-5.87-13v-6.79l-8.88-2.61Z" fill="#f9b499"/><path d="M677.43,362.92v3.61s16.82-2.8,21.92,7.49l3.5-4.45s-6.68-2.6-5.87-13v-6.79l-8.88-2.61Z" fill="#f7a48b"/><path d="M676.25,373.29,667,377.11s-1.23,9.88,1.55,15.75l10.93-7.31s-2.93-1-3.35-5.33c0,0-.12-.89-.18-1.2A9.16,9.16,0,0,1,676.25,373.29Z" fill="#008a86"/><path d="M676.25,373.29,667,377.11s-1.23,9.88,1.55,15.75l10.93-7.31s-2.93-1-3.35-5.33c0,0-.12-.89-.18-1.2A9.16,9.16,0,0,1,676.25,373.29Z" fill="#fff" opacity="0.3" style="isolation:isolate"/><path d="M680.53,385.91l10.33,10.17s16.39-5.7,22.82-22.06l-10.83-4.45S690.76,386.53,680.53,385.91Z" fill="#008a86"/><path d="M680.53,385.91l10.33,10.17s16.39-5.7,22.82-22.06l-10.83-4.45S690.76,386.53,680.53,385.91Z" fill="#fff" opacity="0.3" style="isolation:isolate"/><path d="M702.27,464.24s-8.54,1.19-19.43,1.74c.65-.6,21.45-19.9,21.45-33.57,0,0-12.79,1.73-20.6-3,0,0,21,1.51,27.33-11.94l6.55,9.66S697.11,445.67,702.27,464.24Z" opacity="0.2" style="isolation:isolate"/><path d="M646.4,431.79s-7.25-6.22-5.89-15.47a16.19,16.19,0,0,1,4-8.32l14.54-16.38s-2.7,9.58-8.42,16.12a16.26,16.26,0,0,0-3.56,7,16.84,16.84,0,0,0,3.2,14.17Z" opacity="0.2" style="isolation:isolate"/><path d="M743.63,420.7a65.26,65.26,0,0,0-6.54,19.19c-2.3-2.83-.36-8.11-.36-8.11a6.34,6.34,0,0,0-3.54,3.86c-1.78-6,7.09-14.37,7.09-14.37L733.36,403c-11.53-23.42-21.82-24.49-21.82-24.49l2.14-4.47s15.28,3.83,22.46,22.05Z" opacity="0.2" style="isolation:isolate"/><path d="M674,480.7V501c-.24,9.2-8.16,10.6-8.16,10.6l-18.07,4-46,11.19v0l13.16-15a78.92,78.92,0,0,0,12.31-19.06l11.53-25.28a24.94,24.94,0,0,0,2.05-7.24c13.8,9.71,39.71,3.93,40.61,3.73C673.16,468.9,674,480.7,674,480.7Z" fill="#1f234c"/><path d="M558.37,595.92c-4.84,3.72-5.87,10.05-5.87,10.05-8.77,20.91-23.37,14.64-23.37,14.64-9-1.1,2.83-16.82,2.83-16.82s2.4,10,14.42-1.53l12-13.11s7-8.08,7.24-17C570.85,592.64,558.37,595.92,558.37,595.92Z" fill="#008a86"/><polygon points="522.37 399.36 569.05 465.98 612.96 465.98 566.16 397.1 522.37 399.36" fill="#008a86"/><polygon points="522.37 399.36 569.05 465.98 612.96 465.98 566.16 397.1 522.37 399.36" fill="#fff" opacity="0.5" style="isolation:isolate"/><polygon points="566.16 397.1 567.67 395.31 614.27 463.87 612.96 465.98 566.16 397.1" fill="#e6e7e8"/><polygon points="522.37 399.36 523.95 397.1 567.67 395.31 566.16 397.1 522.37 399.36" fill="#e6e7e8"/><path d="M554.61,399.36l-2.18-3.43-5.21.22a7.49,7.49,0,0,0-9.53-3.87s-4.18,1.1-3,4.38l-2.61.11,1.59,3.39Z" fill="#d1d3d4"/><path d="M545.5,432.37l3.13,4.48s9.12-6.2,13.59,0c0,0,4.63,7.41,4.53,13a3.7,3.7,0,0,1-2.59,3.49l-7,2.16a5.65,5.65,0,0,1-4.84-.73c-2.73-1.85-7.17-5.15-9.52-8.52C542.82,446.27,536.33,441.57,545.5,432.37Z" fill="#f9b499"/><path d="M727.54,542.45l16.72,70.77a5.85,5.85,0,0,0,5.69,4.51h0a5.85,5.85,0,0,0,5.8-6.58l-9-70.68Z" fill="#a7a9ac"/><path d="M613.8,541.83,597.09,612.6a5.85,5.85,0,0,1-5.69,4.5h0a5.84,5.84,0,0,1-5.8-6.58l8.94-70.68Z" fill="#a7a9ac"/><path d="M643.08,540.47l1.09,70.67a6.05,6.05,0,0,0,6.06,6h0a6.05,6.05,0,0,0,6-5.57l5.78-71.69Z" fill="#a7a9ac"/><path d="M674.79,539.84,679.7,611a6.59,6.59,0,0,0,6.58,6.14h0a6.59,6.59,0,0,0,6.59-6.59V538.6Z" fill="#a7a9ac"/><path d="M707.33,320.25s19.33,32.95-10.22,39.17V338.75Z" fill="#1f234c"/><path d="M707.33,320.25s19.33,32.95-10.22,39.17V338.75Z" opacity="0.1" style="isolation:isolate"/><path d="M340,416c1.16,2.05,6.24,9.3,20.45,8.8,0,0-17.32,17.12-16.15,30.93l63-1.32s-1.75-29.81,11.09-44.4l2.72,6.81s16.93.19,20.63-14.59c0,0-4.33-16.43-9.7-26,0,0-1.06-4.82-6.57-10.9,0,0-47.52-10.4-57.16-4.25,0,0-17.44,2.14-22.5,24.38l-6,29.5A1.53,1.53,0,0,0,340,416Z" fill="#008a86"/><path d="M426.56,416.14s7,12.64,14.05,12.82l45.83,1.72s2.07,3.29,9.68,0l7.94,8.25a2.88,2.88,0,0,0,2.18.92c1.72-.06,4.81-1,8.48-5.45a4.24,4.24,0,0,0,.89-3.22l-1-8.06a5.21,5.21,0,0,0-5.55-4.53l-16.53,1.2s-30.24-4.69-44.35-6.71a4.66,4.66,0,0,1-3.7-3c-.78-2-1.84-5-2.67-7.87C441.77,402.24,440.6,412.48,426.56,416.14Z" fill="#f9b499"/><path d="M509.38,439a34.32,34.32,0,0,1-3.9-4.65,33.68,33.68,0,0,1-3.13-5.2,34.44,34.44,0,0,1,3.91,4.64A33.26,33.26,0,0,1,509.38,439Z" fill="#f7a48b"/><path d="M512.1,437.13a31.3,31.3,0,0,1-3.52-4.7,30.54,30.54,0,0,1-2.71-5.2,31.73,31.73,0,0,1,3.52,4.69A32.56,32.56,0,0,1,512.1,437.13Z" fill="#f7a48b"/><path d="M514.72,434.4a25.53,25.53,0,0,1-4.59-8.73,25.53,25.53,0,0,1,4.59,8.73Z" fill="#f7a48b"/><path d="M472.53,561.46s17.77,1.7,24.05-6.5l-7.92-69.68s3.28-24.71-20.77-26.84l-39.08-.29,16.49,36.74,17.4,0a246.57,246.57,0,0,0,5.74,41.26Z" fill="#1f234c"/><path d="M472.53,561.46s17.77,1.7,24.05-6.5l-7.92-69.68s3.28-24.71-20.77-26.84l-39.08-.29,16.49,36.74,17.4,0a246.57,246.57,0,0,0,5.74,41.26Z" opacity="0.2" style="isolation:isolate"/><path d="M524.22,598.79v.39a2.48,2.48,0,0,1-2.36,2.22c-11.49.47-18.11-1.36-18.11-1.36-18.24-4-21.58-3.94-21.58-3.94H470c-4.72-8.19,2.21-21.26,2.21-21.26l9.22,8.37a1.53,1.53,0,0,0,2.53-1.45,9.66,9.66,0,0,0-.56-1.73c-1.89-4.41-3.31-9.75,8.66-8.73,6.93,1.18,9.13,10.46,9.13,10.46a21,21,0,0,0,4.79,6.79,9.65,9.65,0,0,0,6.2,2.74C522.11,591.89,524.06,596,524.22,598.79Z" fill="#008a86"/><path d="M524.22,598.79v.39a2.48,2.48,0,0,1-2.36,2.22c-11.49.47-18.11-1.36-18.11-1.36-18.24-4-21.58-3.94-21.58-3.94H470c-4.72-8.19,2.21-21.26,2.21-21.26l9.22,8.37a1.53,1.53,0,0,0,2.53-1.45,9.66,9.66,0,0,0-.56-1.73c-1.89-4.41-3.31-9.75,8.66-8.73,6.93,1.18,9.13,10.46,9.13,10.46a21,21,0,0,0,4.79,6.79,9.65,9.65,0,0,0,6.2,2.74C522.11,591.89,524.06,596,524.22,598.79Z" opacity="0.2" style="isolation:isolate"/><path d="M444.07,555.47v10.87c-12.76-4.58-8.51,7.87-8.51,7.87,1.11,5.51-3,2.21-3,2.21l-6.92-8a1.45,1.45,0,0,1-.42-.8c-.16-1,1-1.56,1-1.56v-9Z" fill="#f9b499"/><path d="M524.22,599.18v6.45a2.72,2.72,0,0,1-2.78,2.72c-6.38-.12-22.38-.7-32.65-3.43a63,63,0,0,0-15.61-1.73,3.16,3.16,0,0,1-3.3-3.28l.16-3.81h12.13s3.34-.09,21.58,3.94c0,0,6.62,1.83,18.11,1.36A2.48,2.48,0,0,0,524.22,599.18Z" fill="#1f234c"/><path d="M524.22,599.18v6.45a2.72,2.72,0,0,1-2.78,2.72c-6.38-.12-22.38-.7-32.65-3.43a63,63,0,0,0-15.61-1.73,3.16,3.16,0,0,1-3.3-3.28l.16-3.81h12.13s3.34-.09,21.58,3.94c0,0,6.62,1.83,18.11,1.36A2.48,2.48,0,0,0,524.22,599.18Z" opacity="0.2" style="isolation:isolate"/><path d="M360.44,424.81h5.33l2.57-19.19-2.08-5.13,3.18,1.75,5.11-1.75-4.13,14.91s10.8,22.51,36.95,30.33l0,8.68-63,1.33S341.4,445.22,360.44,424.81Z" opacity="0.2" style="isolation:isolate"/><path d="M408.76,372.41l2.28.12s1.55,8.36-11,7.23c0,0-6.5-.5-10.22-2.66l.72-9S400.63,379.1,408.76,372.41Z" fill="#fff" opacity="0.3" style="isolation:isolate"/><path d="M275.1,310.54a15.42,15.42,0,0,1-7.39-1.43c-5.86-2.71-10.9-8.92-14-17.12a51.82,51.82,0,0,1-3.13-15c-1.16-19.28,7.91-35.52,20.27-36.27s23.33,14.28,24.5,33.57S287.46,309.8,275.1,310.54Z" fill="#f9b499"/><path d="M256.48,319.82l2.6,3.21,5.85,38s3.06,15.64-14.22,22.11l-26.65,11.26L220.93,439l91.13,7.12s30.24-.21,39.83,50.89c0,0-5.88,35.43-51.05,56.86a9.57,9.57,0,0,1-13.06-5.45c-4.47-12.4-11.57-34.79-12.42-53.91H202.58s-22.31,4.25-20.46-23c0,0,8-46.73-33-45.29,0,0,1.64-4.1,15.78-17.42,0,0,17-13.33,24-40l4.92-17.42s6.35-34.45,19.06-36.69Z" fill="#008a86"/><path d="M208.9,404.85s-1.14,17.73,6.48,21.35L260.09,446a8.65,8.65,0,0,1,3.62,3c2.64,3.74,10.78,11.74,31.32,9.26a5.35,5.35,0,0,0,4.27-7.47h0a22,22,0,0,0-16.62-12.84l-7.63-1.24a13.54,13.54,0,0,1-4.76-1.75l-36.22-21.81-.3-11.55Z" fill="#f9b499"/><path d="M370.82,608.34a5.39,5.39,0,0,1-1.27-.68Z" fill="none" stroke="#ed1c24" stroke-miterlimit="10" stroke-width="0.25"/><ellipse cx="677.43" cy="333.49" rx="18.37" ry="31.21" fill="#f9b499"/><ellipse cx="696.98" cy="343.07" rx="8.34" ry="5.11" transform="translate(274.18 994.77) rotate(-83.23)" fill="#f9b499"/><path d="M662.43,316.93c1.23-.58,3.84-1.1,6.74,2.84,0,0,9-8.21,18.61-1.62,0,0,9.47,4.19,2.25,13.34,0,0,1.93,31.13,1.45,39.64,0,0,4.95-16.37,4.33-31l.05-4.87s3.94-2.42,5.81,3.5a15.43,15.43,0,0,1,.28,5.61s7.77-7.28,5.38-24.09c0,0-5.93-22.13-28.63-19.67,0,0-20,.58-20.83,23.58,0,0-.87,27.87,7.23,40.55a88.21,88.21,0,0,1-3.55-46.64A1.65,1.65,0,0,1,662.43,316.93Z" fill="#1f234c"/><path d="M707,456.49H768.4s26.08-71.44,16.6-90c0,0,20-2.32,17.65,26.33,0,0-6,46-12.1,65l.51,43.18s-4.48,42.36-43.2,43.05-66.42-.94-66.42-.94l17.42-65.27S696.5,464.08,707,456.49Z" fill="#bcbec0"/><path d="M549.2,456.49l1,58.91a29.19,29.19,0,0,0,29.18,28.69l103.58-1A23.45,23.45,0,0,0,706.17,520l.86-63.52s-19-2.09-25.59,7.39c0,0-7.41,2.53-7.41,16.82V501s.41,8.72-8.16,10.6l-88.94,20.19s-.41-21.44,1.67-35.62a44.6,44.6,0,0,0,.45-6.53v-8a29.53,29.53,0,0,0-3.91-14.95c-2.77-4.71-7.36-9.37-14.88-10.23Z" fill="#d1d3d4"/><path d="M756.24,384.53A17.93,17.93,0,0,1,765.05,372l11.44-8.5A1,1,0,0,1,778,364c.46,1.35.6,3.92-2.22,7.87,0,0,9.44-10.66,14.76-9.29l-1.72,5.23-13.74,10.75Z" fill="#f7a48b"/><polygon points="775.79 371.85 761.52 362.44 759.34 359.42 763.9 360.27 777.72 368.37 778.8 368.8 775.79 371.85" fill="#008a86"/><path d="M786.68,372.94l10.51,6.47a2.2,2.2,0,0,1,.47,3.37h0a2.2,2.2,0,0,1-2.8.38l-11-6.88Z" fill="#008a86"/><path d="M751.74,394.63l4.5-10.1s1.76-5.28,10.74-8.1c0,0,4.3-1.15,9.95-2.06a7,7,0,0,0,3.82-2l9.8-9.85a1.85,1.85,0,0,1,2.11-.37h0a1.85,1.85,0,0,1,.63,2.86L783,377.31s-2.12,3-7.58,4.58c0,0-8.63,1.41-9.51,8.46L761.87,408S760.11,400.32,751.74,394.63Z" fill="#f9b499"/><path d="M574.69,466h23.9L586,494.88l-8.75,17.2,1.37-15.88s.69-10.15.39-16.55A30.52,30.52,0,0,0,574.69,466Z" fill="#bcbec0"/><path d="M640.83,460.15a24.94,24.94,0,0,1-2.05,7.24l-11.53,25.28a78.92,78.92,0,0,1-12.31,19.06l-13.16,15v0L575.3,560.32c-3.78-12.67-16.93-11.18-16.93-11.18L586,494.88l15.79-36.18c11-22,30.1-16.27,30.1-16.27,6.33,2.55,8.45,7.93,9,12.68A22.35,22.35,0,0,1,640.83,460.15Z" fill="#1f234c"/><path d="M640.83,460.15a24.94,24.94,0,0,1-2.05,7.24l-11.53,25.28a78.92,78.92,0,0,1-12.31,19.06l-13.16,15v0L575.3,560.32c-3.78-12.67-16.93-11.18-16.93-11.18L586,494.88l15.79-36.18c11-22,30.1-16.27,30.1-16.27,6.33,2.55,8.45,7.93,9,12.68A22.35,22.35,0,0,1,640.83,460.15Z" opacity="0.2" style="isolation:isolate"/><path d="M550.4,536.65s-14.94,2-18.44,3.35c0,0-6.33,2.84-3.27-5.46,0,0,3.13-14.2,21.71-16.82,0,0,6,1,11.71-5.08,0,0,9.2-11.62,16.94-4.15l-2.12,4.18Z" fill="#008a86"/><path d="M562.22,436.85a29.2,29.2,0,0,1-5.13,2.26,28.33,28.33,0,0,1-5.44,1.37,32.72,32.72,0,0,1,10.57-3.63Z" fill="#f7a48b"/><path d="M564.16,440.48a24.22,24.22,0,0,1-4.61,2.24,23.58,23.58,0,0,1-4.94,1.35,24.22,24.22,0,0,1,4.61-2.24A23.58,23.58,0,0,1,564.16,440.48Z" fill="#f7a48b"/><path d="M565.85,444.72a21.71,21.71,0,0,1-4.26,2.42,22.31,22.31,0,0,1-4.65,1.56,25,25,0,0,1,8.91-4Z" fill="#f7a48b"/><path d="M566.64,448.12a19.21,19.21,0,0,1-3.94,2.28,19.42,19.42,0,0,1-4.33,1.41,18.77,18.77,0,0,1,3.94-2.28A19.42,19.42,0,0,1,566.64,448.12Z" fill="#f7a48b"/><path d="M575.3,560.32l-9.69,11.79c-.23,9-7.24,17-7.24,17l-12,13.11c-12,11.57-14.42,1.53-14.42,1.53l26.41-54.65C573.19,548.45,575.3,560.32,575.3,560.32Z" fill="#f9b499"/><path d="M567.09,532l-16.69,4.65a6.58,6.58,0,0,1-5.21-.61c-1.78-1.1-2.85-3.22,1.14-7.18,0,0,24.44-17.08,30.6-16.19Z" fill="#f9b499"/><ellipse cx="413.23" cy="341.37" rx="31.38" ry="22.13" transform="translate(8.17 692.39) rotate(-80.47)" fill="#f9b499"/><path d="M392.33,356s-1.43,8.72-1.75,12.11c0,0,9.83,10.91,18.18,4.29C408.76,372.41,397.31,372.13,392.33,356Z" fill="#f7a48b"/><path d="M389.58,385.44s0-28.77,7.14-44.07c0,0,14.28,5.93,30.47-14.61,0,0,6.33,3.67,8.39,8.36,0,0,1.8,16.85-10.08,30.19a27.83,27.83,0,0,1,6.57,10.9s12.09-40.57,3.61-60.08c0,0-13-24.38-38.44-14.45,0,0-14.63,4-18.28,34.13,0,0-3.83,19.33-10.62,25.25a13.74,13.74,0,0,1,1.39-.15,5.42,5.42,0,0,1,5.66,5C375.81,371.14,378.09,382.4,389.58,385.44Z" fill="#1f234c"/><path d="M445.72,489.83a113.87,113.87,0,0,0-.65,11.82V557c-9.43,10.39-22.68-.68-22.68-.68-3.42-6.15-8.2-61.84-8.2-61.84H349.73a16.43,16.43,0,0,1-7.7-9.85c-3.84-12.17,2.26-28.9,2.26-28.9l63-1.33,21.48,3.74C446.72,460.41,446.68,480.67,445.72,489.83Z" fill="#1f234c"/><path d="M414.73,477.93l-.54,16.56H349.73a16.43,16.43,0,0,1-7.7-9.85c9.16,1.35,38.63,5,65.2,1.18v-7.09l4.43,7.41S411.86,480.91,414.73,477.93Z" opacity="0.2" style="isolation:isolate"/><path d="M340.63,417s-4.38,31.71,1.89,33.23l42.18,5.5s7.52,8.29,22.58,3.93a3.73,3.73,0,0,0,1.44-6.35A25.79,25.79,0,0,0,384.46,447a5.72,5.72,0,0,1-3.07-.1L355.73,439l4.71-14.17S346.87,425.78,340.63,417Z" fill="#f9b499"/><path d="M409.93,455.74a35.66,35.66,0,0,1-5.94-2,34.42,34.42,0,0,1-5.57-2.85,41,41,0,0,1,11.51,4.82Z" fill="#f7a48b"/><path d="M409.13,458.44a44.8,44.8,0,0,1-12.07-5.11,40.33,40.33,0,0,1,6.22,2.12A39.33,39.33,0,0,1,409.13,458.44Z" fill="#f7a48b"/><path d="M404.17,460.42a30.77,30.77,0,0,1-9.82-4.53,27,27,0,0,1,5.11,1.83A27.29,27.29,0,0,1,404.17,460.42Z" fill="#f7a48b"/><path d="M420,588.54s-2.21,6.46,2,7.56a105,105,0,0,1,26.46,5.38s30.18,10,25.51-4.44l-50.23-13.43Z" fill="#1f234c"/><path d="M472.32,599.11c-5.59.76-22.59-3.49-22.59-3.49-9-4.09-29.76-7.08-29.76-7.08-1.58-16.69,5.24-20.95,5.24-20.95h0a1.45,1.45,0,0,0,.42.8l6.92,8s4.11,3.3,3-2.21c0,0-4.25-12.45,8.51-7.87,5.91.9,8,8.5,8,8.5.6,3.78,4,8.25,6.47,11a8.2,8.2,0,0,0,5.46,2.78c10.64.89,10.41,6.67,9.83,9.08A1.81,1.81,0,0,1,472.32,599.11Z" fill="#008a86"/><path d="M205.28,405.69s9.63,6.76,28.49-4.1c0,0,1.64-49-2.67-60.56,0,0-3.89-14.66-15.58-13.22,0,0-13.52-1.64-12.7,26.44Z" fill="#008a86"/><path d="M205.28,405.69s9.63,6.76,28.49-4.1c0,0,1.64-49-2.67-60.56,0,0-3.89-14.66-15.58-13.22,0,0-13.52-1.64-12.7,26.44Z" opacity="0.2" style="isolation:isolate"/><path d="M259.69,277.24s4.41.36,7.48-14c0,0,1.93-15,14.59-19,0,0,14.84,10.1,13.55,37.4,0,0-1.05,17.43-11.31,25.33,0,0-7.28,6.28-16.28,2.11l-11.24,10.72,15.43,19.62s22.52-21.47,25.8-49.75c0,0,9.43-61.28-32.79-52.88,0,0-33.91-4-36.13,22.81a31.33,31.33,0,0,0,1.88,13.21c2.14,5.9,5.16,17.93-2.85,23.83,0,0-23.36,17.42-25,22.95,0,0,10.45,23.78,44.88,24.19l1.64-12.1L253.73,292Z" fill="#1f234c"/><ellipse cx="254.32" cy="281.66" rx="6.76" ry="9.22" transform="translate(-77.5 97.52) rotate(-18.89)" fill="#f9b499"/><path d="M257.1,319.13a5.76,5.76,0,0,0-1.82,4.39,29.66,29.66,0,0,0,1.85,9.61s2.54,7.13-.47,7.86a2,2,0,0,1-2-.75c-1.33-1.59-4.53-5.63-5.34-8.54L253.73,292a41.17,41.17,0,0,0,3.59,7.32h0a25.24,25.24,0,0,0,10.37,9.79l-5.91,5.57Z" fill="#f9b499"/><path d="M267.71,309.11l-5.91,5.57a18.78,18.78,0,0,1-4.48-15.37h0A25.24,25.24,0,0,0,267.71,309.11Z" fill="#f7a48b"/><path d="M388.65,625.6H357.13c-7.59-3.22-16.37-14.23-16.37-14.23l-2.9,14.23h-3.79c-.29-8.18-4.09-17.25-4.09-17.25-5.83-19.28,4.09-26.09,4.09-26.09s-1.17,10,14,22.57c0,0,14.3,12,22.76,3.52l17.81,11.41C393.61,623.55,388.65,625.6,388.65,625.6Z" fill="#008a86"/></svg>