 <!DOCTYPE svg PUBLIC "-//W3C//DTD SVG 1.1//EN" "http://www.w3.org/Graphics/SVG/1.1/DTD/svg11.dtd">
<svg id="b7e3db9b-4a9d-41bd-bfc9-fa8099e0b6ed" data-name="Layer 1" xmlns="http://www.w3.org/2000/svg" xmlns:xlink="http://www.w3.org/1999/xlink" width="865.76" height="682.89" viewBox="0 0 865.76 682.89">
<defs>
<clipPath id="f9e80e0d-48ca-4af1-98a8-c08337feb043">
<rect x="354.86" y="279.08" width="118.44" height="113.5" fill="#f0f0ff"/>
</clipPath>
<style xmlns="http://www.w3.org/1999/xhtml">*, ::after, ::before { box-sizing: border-box; }
img, svg { vertical-align: middle; }
</style>
<style xmlns="http://www.w3.org/1999/xhtml">*, body, html { -webkit-font-smoothing: antialiased; }
img, svg { max-width: 100%; }
</style>
</defs>
<path d="M732,52.23C788.3,91.3,758.22,130,758.22,130c-36.64,43.21-97.14-5.88-97.14-5.88-43.21-37.68-16.94-71.91-16.94-71.91S666.34,15.56,732,52.23Z" fill="#008a86" data-primary="true"/>
<path d="M732,52.23C788.3,91.3,758.22,130,758.22,130c-36.64,43.21-97.14-5.88-97.14-5.88-43.21-37.68-16.94-71.91-16.94-71.91S666.34,15.56,732,52.23Z" fill="#fff" opacity="0.7" style="isolation:isolate"/>
<rect x="673.87" y="78.16" width="54.62" height="42.17" rx="6.74" fill="#008a86" data-primary="true"/>
<polygon points="685.28 99.25 690.12 94.41 698.42 103.4 715.7 84.04 719.85 88.53 699.11 113.08 685.28 99.25" fill="#fff"/>
<path d="M683.21,78.16l-1.05-8a18,18,0,0,1,4.12-14.26c3.67-4.19,9.89-7.65,20.09-4.71,0,0,9.33,4.09,11.41,12.93h-5.53s-4.56-12.45-16.94-7.75c0,0-10,3.46-7.26,13.83l.69,8Z" fill="#008a86" data-primary="true"/>
<g id="a8114cb4-85e6-48fb-91ce-f21e90bf4272" data-name="freepik--background-simple--inject-6">
<path d="M682.87,159.05C636.76,111,564.71,85.42,496.54,79.14a588.31,588.31,0,0,0-60.12-2.34C238.51,78.74,180.54,157,193.23,194.7s48.37,60.88-3.12,113.06-109.53,130.42-80,208.7S261.66,655.62,438.53,646,730.14,635.32,767,562.88s-43.68-122.2-55-184.31c-7-38.51,11-77.34,12.31-115.74C725.69,221.3,709.37,186.68,682.87,159.05Z" fill="#008a86" data-primary="true"/>
<path d="M682.87,159.05C636.76,111,564.71,85.42,496.54,79.14a588.31,588.31,0,0,0-60.12-2.34C238.51,78.74,180.54,157,193.23,194.7s48.37,60.88-3.12,113.06-109.53,130.42-80,208.7S261.66,655.62,438.53,646,730.14,635.32,767,562.88s-43.68-122.2-55-184.31c-7-38.51,11-77.34,12.31-115.74C725.69,221.3,709.37,186.68,682.87,159.05Z" fill="#fff" opacity="0.7" style="isolation:isolate"/>
</g>
<rect x="72.91" y="389.73" width="285.61" height="202.3" rx="12.63" fill="#e6e7e8"/>
<rect x="72.91" y="422.12" width="285.61" height="35.7" fill="#008a86" opacity="0.17" data-primary="true"/>
<rect x="101.33" y="481.62" width="200.99" height="23.8" rx="8.27" fill="#dcdcf9"/>
<circle cx="146.62" cy="548.73" r="18.84" fill="#1f234c" data-secondary="true"/>
<rect x="180.67" y="529.89" width="121.65" height="13.88" rx="4.82" fill="#008a86" opacity="0.17" data-primary="true"/>
<rect x="180.67" y="553.69" width="121.65" height="13.88" rx="4.82" fill="#dcdcf9"/>
<rect x="256.03" y="118.52" width="308.57" height="516.21" fill="#1f234c" data-secondary="true"/>
<rect x="270.97" y="135.82" width="282.11" height="485.93" fill="#f0f0ff"/>
<polygon points="270.97 143.37 545.67 143.37 545.67 621.75 553.07 621.75 553.07 135.82 270.97 135.82 270.97 143.37" fill="#dcdcf9"/>
<rect x="314.56" y="231.38" width="201.09" height="201.09" fill="#008a86" opacity="0.17" data-primary="true"/>
<path d="M630.08,591.79h22.68l-1-4.62S641.84,583.13,630.08,591.79Z" fill="#1f234c" data-secondary="true"/>
<path d="M630.08,591.79h22.68l-1-4.62S641.84,583.13,630.08,591.79Z" opacity="0.2"/>
<path d="M722.44,591.79h29.85l-1-4.62S736.77,578.33,722.44,591.79Z" fill="#1f234c" data-secondary="true"/>
<path d="M722.44,591.79h29.85l-1-4.62S736.77,578.33,722.44,591.79Z" opacity="0.2"/>
<polygon points="754.92 604.31 776.58 604.31 773.86 590.83 750.24 582.06 754.92 604.31" fill="#f9b499"/>
<polygon points="655.39 604.31 677.05 604.31 674.34 590.83 651.18 584.27 655.39 604.31" fill="#f9b499"/>
<path d="M598.83,166.33l12.16,32a2.4,2.4,0,0,0,3,1.44l9.48-3.08a2.41,2.41,0,0,0,1.52-3.12L612.91,160.2a2.73,2.73,0,0,0-3.74-1.55l-8.95,4.23A2.74,2.74,0,0,0,598.83,166.33Z" fill="#008a86" data-primary="true"/>
<path d="M712.64,148.58a139.53,139.53,0,0,1,7.15,15.81c.51,1.36,1,2.73,1.42,4.12s.77,2.8,1.21,4.14a36.91,36.91,0,0,0,3.53,7.72,35.05,35.05,0,0,0,5.25,6.69,25,25,0,0,0,6.9,4.94,31,31,0,0,1,3.72,2.29,42.5,42.5,0,0,1,3.33,2.8,24.15,24.15,0,0,1,5.26,6.85,24.15,24.15,0,0,0-5.55-6.53,41,41,0,0,0-3.38-2.65,28.84,28.84,0,0,0-3.71-2.11,25.14,25.14,0,0,1-7.21-4.92,34.74,34.74,0,0,1-5.53-6.79,38.19,38.19,0,0,1-3.71-7.93c-.47-1.4-.82-2.8-1.24-4.15s-.89-2.72-1.38-4.07c-2-5.36-4.36-10.63-6.9-15.78Z" fill="#1f234c" data-secondary="true"/>
<path d="M676.84,198.48l-.86,6.37c-13.09,0-27.53,14-27.53,14-2-6.44,1.29-14.51,3.86-18.61.68-1.07,1.48-2,2.24-3.05,5.05-6.7.67-38.56.67-38.56-.45-21,16.72-19.17,16.72-19.17a10.39,10.39,0,0,0-1.08,4.69h0c-6.22,4.68-10.5,14.48-10.5,25.8C660.36,184.64,667.56,196.75,676.84,198.48Z" fill="#1f234c" data-secondary="true"/>
<path d="M645.52,222.89s-4.6-10.83,2.32-20.3c0,0,10.67-11.77,10-23.48" fill="none" stroke="#2f2e41" stroke-miterlimit="10"/>
<path d="M766.41,271.77c-16.21,17.93-31.79,20.59-31.79,20.59l25,56.17a138.2,138.2,0,0,1-16.35,1.74c-36,1.54-54.7-13.24-54.7-13.24a75.16,75.16,0,0,0-38.21-15.25,57.5,57.5,0,0,0-10.27-.32l7.72-49.36c-7.72-8.61-15.45-22.61-15.45-22.61,1-14.45,16.05-30.66,16.05-30.66,13-14.32,27.53-14,27.53-14l25.26-.45c28.14-.68,46,15.79,46,15.79,21.23,17,19.84,46.51,19.53,50.71A1.44,1.44,0,0,1,766.41,271.77Z" fill="#008a86" data-primary="true"/>
<path d="M676.84,198.48l-1.32,10.2s11.51,10.37,25.72-4.29c0,0-4.58-3-4.11-26.23C697.13,178.16,692.6,201.37,676.84,198.48Z" fill="#f9b499"/>
<path d="M676.84,198.48l-.86,6.37s14.43.22,17.59-16.47C693.57,188.38,687.78,199.9,676.84,198.48Z" fill="#f7a48b"/>
<g opacity="0.2">
<polygon points="652.97 245.67 648.37 272.2 647.32 272 652.97 245.67"/>
</g>
<g opacity="0.2">
<path d="M734.08,292.38a45.51,45.51,0,0,0-1.16-8.07,60.08,60.08,0,0,0-2.34-7.86,60.91,60.91,0,0,0-3.38-7.51,68.57,68.57,0,0,0-4.31-7,67.36,67.36,0,0,1,4.55,6.9,61.69,61.69,0,0,1,3.64,7.44,60.05,60.05,0,0,1,2.63,7.87,46.93,46.93,0,0,1,1.45,8.23Z"/>
</g>
<path d="M645.48,287.24s-26.66,13-38.33-6.75a23.21,23.21,0,0,1-3-10.05c-.68-8.82-1.32-30,5.2-51.61,0,0,1.37-5.08-1-12.26,0,0-8.89-12.31-2.74-22.91l3.13-5.38a1.63,1.63,0,0,1,2.76-.08h0a1.63,1.63,0,0,1,0,1.82l-4.65,6.8a.86.86,0,0,0,.33,1.26h0a.87.87,0,0,0,1-.24l4.61-5.81a1.26,1.26,0,0,1,2,.07h0a1.27,1.27,0,0,1-.1,1.55l-5.21,5.9a.89.89,0,0,0,0,1.23h0a.88.88,0,0,0,1.21.05l5.21-4.37a1.61,1.61,0,0,1,2.49.55h0a1.6,1.6,0,0,1-.69,2.09L612,192.23a.82.82,0,0,0-.22,1.26h0a.82.82,0,0,0,1.11.11c1.4-1,5-3.4,7.64-2.56a1.18,1.18,0,0,1,.79,1h0a1.21,1.21,0,0,1-1,1.31,14.25,14.25,0,0,0-3.69,1.13,2,2,0,0,0-.57,3.23c2,2,5.6,6.74,4.45,13.23a7.59,7.59,0,0,0,0,2.81l8.57,42.35,4-5.28s10.09,16.6,15.19,21.34Z" fill="#f9b499"/>
<path d="M792.57,583.64a5.82,5.82,0,0,1-5.12,7.6c-14.1,1-36.14-4.07-36.14-4.07-19.39-4.51-28.87,4.62-28.87,4.62-14-36.87-31.58-127.33-31.58-127.33-5.41,32.94,5.19,118.88,5.19,118.88-9.3,11-25.14,8.21-33.2,5.83a45.72,45.72,0,0,0-19.75-1.6c-8.51,1.26-13,4.22-13,4.22L624,528.16C619.1,384.62,650.4,321.78,650.4,321.78A75.16,75.16,0,0,1,688.61,337s18.68,14.78,54.7,13.24l7.55,67.28C766.55,500.07,786.25,564.05,792.57,583.64Z" fill="#1f234c" data-secondary="true"/>
<path d="M723.43,625.63c2.34-4,7.31-9.1,17.62-10.49,0,0,11.16-.68,13.87-10.83h21.66L783,630.7H726.38A3.39,3.39,0,0,1,723.43,625.63Z" fill="#008a86" data-primary="true"/>
<path d="M623.9,625.63c2.35-4,7.31-9.1,17.62-10.49,0,0,11.17-.68,13.88-10.83h21.65l6.43,26.39H626.86A3.39,3.39,0,0,1,623.9,625.63Z" fill="#008a86" data-primary="true"/>
<g opacity="0.2">
<path d="M690.36,464.65c-7.19-19.17-13.64-96.89-14-101.69l-10-8.3.68-.82,10.35,8.58,0,.22c.07.82,6.66,82.09,14,101.63Z"/>
</g>
<rect x="354.86" y="279.08" width="118.44" height="113.5" fill="#f0f0ff"/>
<g clip-path="url(#f9e80e0d-48ca-4af1-98a8-c08337feb043)">
<path d="M384.94,352.83c0-.09-4.69-8.86,1.13-15.29,0-.05,6.6-8.65,7.45-15.18l1.07.13c-.89,6.83-7.42,15.38-7.7,15.74-5.33,5.89-1,14-1,14.09Z" fill="#1f234c" data-secondary="true"/>
<path d="M358.38,393.48s3.05-42.45,46.4-46.19l19.1.52s44.28,2.64,45.89,45.67Z" fill="#008a86" data-primary="true"/>
<g opacity="0.2">
<path d="M379.94,393.5c-.24-8.4,3.17-12.4,3.31-12.57l.82.71s-3.28,3.88-3.06,11.83Z"/>
</g>
<g opacity="0.2">
<path d="M450.51,393.54l-1.07-.12c.44-3.75-2.25-11.88-2.27-12l1-.34C448.3,381.46,451,389.56,450.51,393.54Z"/>
</g>
<path d="M406,336.82l-1.21,10.47a10.34,10.34,0,0,0,8.79,6.27s7.74.8,10.31-5.75l-.9-11S415.41,345.2,406,336.82Z" fill="#f9b499"/>
<path d="M405.43,341.68l.56-4.86,10.15,3.77S408.19,343.16,405.43,341.68Z" fill="#f7a48b"/>
<ellipse cx="414.48" cy="317.18" rx="15.38" ry="23.55" fill="#f9b499"/>
<path d="M409.36,305.56a4.82,4.82,0,0,0-8.27.57,14.63,14.63,0,0,0-1.07,3s-4.37,15.33,6,27.7l-1.21,10.47S394.6,348,388,351.65c0,0-3.44-5,0-12.3,0,0,6.15-8.41,4.87-14-.07-.31-.15-.62-.2-.94-.66-4-4.28-30.52,13.3-30.15,0,0,8.46-9.91,19.7-4.23,0,0,10.7,2.91,12.56,22.07,0,0,2.31,20.63,11.23,26.38,0,0,10.91,11.89,6.74,23,0,0-11.3-11.7-32.32-13.69l-.9-11s6.91-6.24,6.88-20.71C429.86,316.09,416.61,316.14,409.36,305.56Z" fill="#1f234c" data-secondary="true"/>
</g>
<polygon points="347.99 312.8 346.92 312.8 346.92 270.32 386.93 270.32 386.93 271.39 347.99 271.39 347.99 312.8" fill="#f0f0ff"/>
<polygon points="481.24 312.8 480.16 312.8 480.16 271.39 438.75 271.39 438.75 270.32 481.24 270.32 481.24 312.8" fill="#f0f0ff"/>
<polygon points="482.26 400.93 442.25 400.93 442.25 399.86 481.19 399.86 481.19 358.45 482.26 358.45 482.26 400.93" fill="#f0f0ff"/>
<polygon points="390.43 400.93 347.94 400.93 347.94 358.45 349.02 358.45 349.02 399.86 390.43 399.86 390.43 400.93" fill="#f0f0ff"/>
<circle cx="415.1" cy="540.43" r="61.67" fill="#1f234c" opacity="0.17" data-secondary="true"/>
<path d="M380.44,508.34s25.29,4.73,32.69-7.6c0,0,13.16,14.39,32.9,6.58v22.46a53.86,53.86,0,0,1-11.62,33.83,74.39,74.39,0,0,1-21.18,17.73s-20.87-8.92-29.53-30.28a47.13,47.13,0,0,1-3.26-17.7Z" fill="#1f234c" data-secondary="true"/>
<path d="M389.07,516.52s19.27,3.58,24.91-5.78a23.13,23.13,0,0,0,25.06,5v17a40.76,40.76,0,0,1-8.85,25.66,56.73,56.73,0,0,1-16.13,13.45s-15.9-6.76-22.5-23a35.64,35.64,0,0,1-2.49-13.43Z" fill="#f0f0ff"/>
<path d="M411.49,550.75a1.11,1.11,0,0,1-.78-.33l-11.16-11.51a1.09,1.09,0,0,1,0-1.53,1.07,1.07,0,0,1,1.52,0l10.31,10.64L429.15,526a1.08,1.08,0,1,1,1.68,1.35l-18.5,23a1.11,1.11,0,0,1-.79.4Z" fill="#1f234c" data-secondary="true"/>
<path d="M697.91,169.94c0,15.89-8.4,28.76-18.78,28.76a11.69,11.69,0,0,1-2.29-.22c-9.28-1.73-16.48-13.84-16.48-28.54,0-11.32,4.28-21.12,10.5-25.8h0a13.65,13.65,0,0,1,8.27-2.94C689.51,141.19,697.91,154.07,697.91,169.94Z" fill="#f9b499"/>
<path d="M718.38,172.39a37.47,37.47,0,0,0,7,18.6,36.8,36.8,0,0,0,10.06,9.48,25.83,25.83,0,0,1,11.82,19.71,72.72,72.72,0,0,0-46-15.79c-5-5-4.11-26.23-4.11-26.23a34.69,34.69,0,0,0,.78-11.54c-30.9-2.74-27-22.48-27-22.48s-.74-7.19,8.28-10.57c0,0,18.41-7.08,29.84,7.62C709,141.19,716.58,148.74,718.38,172.39Z" fill="#1f234c" data-secondary="true"/>
<circle cx="697.91" cy="172.39" r="5.77" fill="#f9b499"/>
<path d="M734.62,292.36s10.16,40.07-15.25,63.79a4.16,4.16,0,0,1-2.23,1,26.81,26.81,0,0,0-8.48,2.71.85.85,0,0,0,.19,1.57c1,.21,2.87.1,6.58-.9a.18.18,0,0,1,.15.32l-10.37,6.6a1.07,1.07,0,0,0-.24,1.6h0a1.08,1.08,0,0,0,1.31.25l5.87-3a.67.67,0,0,1,1,.48h0a.67.67,0,0,1-.32.68l-4.9,3a.94.94,0,0,0-.18,1.47h0a.94.94,0,0,0,1.13.15l6.73-3.82a.76.76,0,0,1,.89.12h0a.74.74,0,0,1-.15,1.16l-6.94,4.11a1.16,1.16,0,0,0-.18,1.87h0a1.15,1.15,0,0,0,1.48,0l5.42-4.24a.65.65,0,0,1,1,.18h0a.66.66,0,0,1-.14.85l-3.58,2.94a1,1,0,0,0,.09,1.61h0a1,1,0,0,0,.92.08c1.91-.79,8.95-4.14,12.32-11.68a4.45,4.45,0,0,1,1.67-1.92c7-4.46,43.19-30.32,35.26-88.65C763.61,274.73,749.17,289,734.62,292.36Z" fill="#f9b499"/>
<circle cx="120.17" cy="548.73" r="18.84" fill="#008a86" data-primary="true"/>
<path d="M352.81,186.87v7.53H361v2.42h-8.2v7.76H362V207H349.87V184.45H362v2.42Z" fill="#1f234c" data-secondary="true"/>
<path d="M378.72,193.92v2.48H365.83v-2.48Z" fill="#1f234c" data-secondary="true"/>
<path d="M412.55,184.48,406,207h-3.29l-5.24-18.13L392.07,207l-3.27,0-6.3-22.55h3.14l4.91,19.1,5.43-19.1h3.29l5.17,19,4.95-19Z" fill="#1f234c" data-secondary="true"/>
<path d="M415.78,193.32a8.08,8.08,0,0,1,3-3.19,8.36,8.36,0,0,1,4.29-1.13,8,8,0,0,1,4,1,6.66,6.66,0,0,1,2.55,2.53v-3.24h3V207h-3v-3.29a6.88,6.88,0,0,1-2.6,2.56,7.81,7.81,0,0,1-4,1,8.06,8.06,0,0,1-4.26-1.16,8.25,8.25,0,0,1-3-3.26,10.22,10.22,0,0,1-1.1-4.79A10,10,0,0,1,415.78,193.32Zm13.09,1.31a5.77,5.77,0,0,0-2.18-2.28,6.22,6.22,0,0,0-6,0,5.68,5.68,0,0,0-2.16,2.26,7.2,7.2,0,0,0-.81,3.49,7.34,7.34,0,0,0,.81,3.54,5.79,5.79,0,0,0,2.16,2.3,6,6,0,0,0,3,.79,6,6,0,0,0,3-.79,5.76,5.76,0,0,0,2.18-2.3,7.26,7.26,0,0,0,.81-3.5A7.17,7.17,0,0,0,428.87,194.63Z" fill="#1f234c" data-secondary="true"/>
<path d="M440.57,183.09V207h-2.94V183.09Z" fill="#1f234c" data-secondary="true"/>
<path d="M448.51,183.09V207h-2.94V183.09Z" fill="#1f234c" data-secondary="true"/>
<path d="M469.58,199.25H455.43a5.56,5.56,0,0,0,5.75,5.55,5.44,5.44,0,0,0,3.18-.88,4.8,4.8,0,0,0,1.8-2.38h3.16a7.57,7.57,0,0,1-2.84,4.15,8.56,8.56,0,0,1-5.3,1.6,8.91,8.91,0,0,1-4.51-1.13,8,8,0,0,1-3.11-3.21,9.91,9.91,0,0,1-1.14-4.83,10.14,10.14,0,0,1,1.1-4.82,7.64,7.64,0,0,1,3.09-3.18,9.21,9.21,0,0,1,4.57-1.12,8.91,8.91,0,0,1,4.46,1.1,7.62,7.62,0,0,1,3,3,8.94,8.94,0,0,1,1.05,4.35A16.06,16.06,0,0,1,469.58,199.25ZM465.9,194a4.91,4.91,0,0,0-2-1.84,6.29,6.29,0,0,0-2.83-.63,5.51,5.51,0,0,0-3.8,1.42,5.81,5.81,0,0,0-1.79,4h11.18A5.51,5.51,0,0,0,465.9,194Z" fill="#1f234c" data-secondary="true"/>
<path d="M477.14,191.72v10.43a2.52,2.52,0,0,0,.55,1.83,2.69,2.69,0,0,0,1.91.53h2.16V207h-2.65a5.3,5.3,0,0,1-3.68-1.13,4.84,4.84,0,0,1-1.23-3.72V191.72h-2.29v-2.43h2.29v-4.46h2.94v4.46h4.62v2.43Z" fill="#1f234c" data-secondary="true"/>
<path d="M355.55,450v1.22h-6.47v5.48h5.46v1.22h-5.46v6.76h-1.47V450Z" fill="#1f234c" data-secondary="true"/>
<path d="M366.47,461.17h-6.68l-1.28,3.48H357l5.35-14.49H364l5.33,14.49h-1.55ZM366,460l-2.9-7.94-2.9,7.94Z" fill="#1f234c" data-secondary="true"/>
<path d="M371.93,453.43a6.9,6.9,0,0,1,2.58-2.67,7.09,7.09,0,0,1,3.66-1,7.43,7.43,0,0,1,4.21,1.17,6.65,6.65,0,0,1,2.55,3.29h-1.72a5,5,0,0,0-1.93-2.34,6.07,6.07,0,0,0-6-.08,5.26,5.26,0,0,0-2,2.17,7.76,7.76,0,0,0,0,6.57,5.3,5.3,0,0,0,2,2.16,6.1,6.1,0,0,0,6-.07,5,5,0,0,0,1.93-2.3h1.72a6.56,6.56,0,0,1-2.56,3.25,7.52,7.52,0,0,1-4.2,1.16,7.09,7.09,0,0,1-3.66-1,6.92,6.92,0,0,1-2.58-2.65,8.36,8.36,0,0,1,0-7.74Z" fill="#1f234c" data-secondary="true"/>
<path d="M389.32,451.17v5.48h5.56v1.22h-5.56v5.56h6.19v1.22h-7.66V450h7.66v1.22Z" fill="#1f234c" data-secondary="true"/>
<path d="M405.57,450v9.24a4.46,4.46,0,0,0,1,3.24,4.37,4.37,0,0,0,5.67,0,4.51,4.51,0,0,0,1-3.25V450h1.47v9.22a5.56,5.56,0,0,1-1.48,4.2,6,6,0,0,1-7.71,0,5.53,5.53,0,0,1-1.48-4.2V450Z" fill="#1f234c" data-secondary="true"/>
<path d="M429.11,464.65h-1.47l-8.13-12.35v12.35H418V450h1.47l8.13,12.33V450h1.47Z" fill="#1f234c" data-secondary="true"/>
<path d="M433.92,463.45h5.27v1.2h-6.74V450h1.47Z" fill="#1f234c" data-secondary="true"/>
<path d="M444.19,463.84a6.8,6.8,0,0,1-2.62-2.67,8.36,8.36,0,0,1,0-7.74,6.93,6.93,0,0,1,2.62-2.67,7.63,7.63,0,0,1,7.41,0,6.84,6.84,0,0,1,2.61,2.67,8.44,8.44,0,0,1,0,7.74,6.71,6.71,0,0,1-2.61,2.67,7.63,7.63,0,0,1-7.41,0Zm6.63-1.08a5.33,5.33,0,0,0,2.06-2.17,7.48,7.48,0,0,0,0-6.57,5.43,5.43,0,0,0-2.06-2.16,6.14,6.14,0,0,0-5.88,0,5.47,5.47,0,0,0-2.05,2.16,7.48,7.48,0,0,0,0,6.57,5.37,5.37,0,0,0,2.05,2.17,6.07,6.07,0,0,0,5.88,0Z" fill="#1f234c" data-secondary="true"/>
<path d="M458.11,453.43a6.86,6.86,0,0,1,2.59-2.67,7.06,7.06,0,0,1,3.65-1,7.41,7.41,0,0,1,4.21,1.17,6.6,6.6,0,0,1,2.55,3.29h-1.72a5,5,0,0,0-1.92-2.34,6.08,6.08,0,0,0-6-.08,5.26,5.26,0,0,0-2,2.17,7.76,7.76,0,0,0,0,6.57,5.3,5.3,0,0,0,2,2.16,6.12,6.12,0,0,0,6-.07,5,5,0,0,0,1.92-2.3h1.72a6.5,6.5,0,0,1-2.56,3.25,7.52,7.52,0,0,1-4.2,1.16,7.06,7.06,0,0,1-3.65-1,6.87,6.87,0,0,1-2.59-2.65,8.44,8.44,0,0,1,0-7.74Z" fill="#1f234c" data-secondary="true"/>
<path d="M481.86,464.65l-6.36-6.78v6.78H474V450h1.47v6.87l6.36-6.87h1.87l-6.87,7.33,6.93,7.35Z" fill="#1f234c" data-secondary="true"/>
</svg>